{"title":"Parzania 2007 Dvdrip x264 Ratzz","uid":7111645,"size":576432456,"categoryP":"video","categoryS":"movies","magnet":"?xt=urn:btih:1ae61bed8d9fcf212e29350dce183615cd69084e&amp;dn=Parzania+2007+Dvdrip+x264+Ratzz&amp;tr=udp%3A%2F%2Ftracker.openbittorrent.com%3A80&amp;tr=udp%3A%2F%2Fopen.demonii.com%3A1337&amp;tr=udp%3A%2F%2Ftracker.coppersurfer.tk%3A6969&amp;tr=udp%3A%2F%2Fexodus.desync.com%3A6969","seeders":2,"leechers":0,"uploader":"afterratzz","files":6,"time":1332087785,"description":"Encoded by Ratzz.\n\n\n\n\nGeneral\nComplete name : Parzania 2007 Dvdrip x264 Ratzz.mp4\nFormat : MP4\nFormat profile : Base Media\nCodec ID : isom\nFile size : 550 MiB\nDuration : 1h 54mn\nOverall bit rate : 669 Kbps\n\nVideo\nID : 1\nFormat : AVC\nFormat/Info : Advanced Video Codec\nFormat profile : &lt;a class=&quot;__cf_email__&quot; href=&quot;/cdn-cgi/l/email-protection&quot; data-cfemail=&quot;e0a8898788a0acd2ced1&quot;&gt;[email&amp;#160;protected]&lt;/a&gt;&lt;script cf-hash='f9e31' type=&quot;text/javascript&quot;&gt;\n/* &lt;![CDATA[ */!function(){try{var t=&quot;currentScript&quot;in document?document.currentScript:function(){for(var t=document.getElementsByTagName(&quot;script&quot;),e=t.length;e--;)if(t[e].getAttribute(&quot;cf-hash&quot;))return t[e]}();if(t&amp;&amp;t.previousSibling){var e,r,n,i,c=t.previousSibling,a=c.getAttribute(&quot;data-cfemail&quot;);if(a){for(e=&quot;&quot;,r=parseInt(a.substr(0,2),16),n=2;a.length-n;n+=2)i=parseInt(a.substr(n,2),16)^r,e+=String.fromCharCode(i);e=document.createTextNode(e),c.parentNode.replaceChild(e,c)}}}catch(u){}}();/* ]]&gt; */&lt;/script&gt;\nFormat settings, CABAC : Yes\nFormat settings, ReFrames : 4 frames\nDuration : 1h 54mn\nBit rate mode : Variable\nBit rate : 634 Kbps\nMaximum bit rate : 3 917 Kbps\nWidth : 640 pixels\nHeight : 272 pixels\nDisplay aspect ratio : 2.35:1\nFrame rate mode : Constant\nFrame rate : 23.976 fps\nColor space : YUV\nChroma subsampling : 4:2:0\nBit depth : 8 bits\nScan type : Progressive\nBits/(Pixel*Frame) : 0.152\nStream size : 521 MiB (95%)\n\n\nAudio\nID : 2\nFormat : AAC\nFormat/Info : Advanced Audio Codec\nFormat profile : HE-AAC / LC\nCodec ID : 40\nDuration : 1h 54mn\nBit rate mode : Variable\nBit rate : 32.0 Kbps\nMaximum bit rate : 40.0 Kbps\nChannel(s) : 2 channels\nChannel positions : Front: L R\nSampling rate : 48.0 KHz / 24.0 KHz\nCompression mode : Lossy\nStream size : 26.3 MiB (5%)\n\n\nPoster :\n\n &lt;a href=&quot;\nhttp://img846.imageshack.us/img846/6373/parzaniaposter1.jpg&quot; rel=&quot;nofollow&quot; target=&quot;_NEW&quot;&gt;\nhttp://img846.imageshack.us/img846/6373/parzaniaposter1.jpg&lt;/a&gt;\n\n\n\nScreens :\n\n &lt;a href=&quot;\nhttp://img715.imageshack.us/img715/4821/parzania2007dvdripx264r.jpg&quot; rel=&quot;nofollow&quot; target=&quot;_NEW&quot;&gt;\nhttp://img715.imageshack.us/img715/4821/parzania2007dvdripx264r.jpg&lt;/a&gt;\n &lt;a href=&quot;\nhttp://img696.imageshack.us/img696/4821/parzania2007dvdripx264r.jpg&quot; rel=&quot;nofollow&quot; target=&quot;_NEW&quot;&gt;\nhttp://img696.imageshack.us/img696/4821/parzania2007dvdripx264r.jpg&lt;/a&gt;\n &lt;a href=&quot;\nhttp://img825.imageshack.us/img825/4821/parzania2007dvdripx264r.jpg&quot; rel=&quot;nofollow&quot; target=&quot;_NEW&quot;&gt;\nhttp://img825.imageshack.us/img825/4821/parzania2007dvdripx264r.jpg&lt;/a&gt;\n\n\n\n\n\n\n\n\nPls seed back and give a reply.\nThank you.","torrent":{"xt":"urn:btih:1ae61bed8d9fcf212e29350dce183615cd69084e","amp;dn":"Parzania+2007+Dvdrip+x264+Ratzz","amp;tr":["udp%3A%2F%2Ftracker.openbittorrent.com%3A80","udp%3A%2F%2Fopen.demonii.com%3A1337","udp%3A%2F%2Ftracker.coppersurfer.tk%3A6969","udp%3A%2F%2Fexodus.desync.com%3A6969"],"infoHash":"1ae61bed8d9fcf212e29350dce183615cd69084e","infoHashBuffer":{"type":"Buffer","data":[26,230,27,237,141,159,207,33,46,41,53,13,206,24,54,21,205,105,8,78]},"announce":[],"urlList":[]}}